<?xml version="1.0" standalone="no"?>
<!DOCTYPE svg PUBLIC "-//W3C//DTD SVG 20010904//EN"
 "http://www.w3.org/TR/2001/REC-SVG-20010904/DTD/svg10.dtd">
<svg version="1.0" xmlns="http://www.w3.org/2000/svg"
 width="700.000000pt" height="700.000000pt" viewBox="0 0 700.000000 700.000000"
 preserveAspectRatio="xMidYMid meet">
<metadata>
Created by potrace 1.14, written by Peter Selinger 2001-2017
</metadata>
<g transform="translate(0.000000,700.000000) scale(0.100000,-0.100000)"
fill="#000000" stroke="none">
<path d="M2428 5928 c-588 -587 -1068 -1071 -1068 -1075 0 -5 177 -185 393
-401 l392 -393 676 680 675 680 665 -665 c365 -366 671 -669 679 -674 12 -6
107 84 409 385 l393 393 -1072 1069 c-589 587 -1072 1068 -1073 1069 -1 0
-482 -480 -1069 -1068z"/>
<path d="M402 3902 c-216 -216 -392 -396 -392 -401 0 -6 163 -171 361 -368
199 -197 373 -370 387 -385 14 -16 28 -28 32 -28 4 0 182 176 397 390 l390
390 -392 397 -392 396 -391 -391z"/>
<path d="M3100 3894 l-395 -395 393 -389 c216 -215 396 -390 400 -390 4 0 184
177 400 393 l392 393 -383 380 c-210 208 -389 384 -398 391 -13 10 -77 -50
-409 -383z"/>
<path d="M5810 3899 c-212 -215 -386 -393 -388 -397 -1 -4 175 -184 392 -401
l393 -393 397 396 396 396 -396 392 c-217 216 -398 394 -402 395 -4 1 -180
-174 -392 -388z"/>
<path d="M1753 2548 c-216 -216 -393 -396 -393 -401 0 -9 2128 -2137 2137
-2137 5 0 489 481 1076 1069 l1068 1068 -396 396 -396 397 -676 -680 -676
-680 -676 680 -676 681 -392 -393z"/>
</g>
</svg>
